<?xml version="1.0" standalone="no"?><!DOCTYPE svg PUBLIC "-//W3C//DTD SVG 1.1//EN" "http://www.w3.org/Graphics/SVG/1.1/DTD/svg11.dtd"><svg t="1534778383455" class="icon" style="" viewBox="0 0 1024 1024" version="1.1" xmlns="http://www.w3.org/2000/svg" p-id="2909" xmlns:xlink="http://www.w3.org/1999/xlink" width="32" height="32"><defs><style type="text/css"></style></defs><path d="M253.035082 756.11728c0 22.54935 18.548659 40.942138 41.227902 40.942138h41.227902v143.193569a61.517121 61.517121 0 0 0 61.802885 61.387229 61.517121 61.517121 0 0 0 61.828864-61.387229v-143.193569h82.403846v143.193569c-0.025979 16.288528 6.494629 31.927594 18.081046 43.436076a62.036692 62.036692 0 0 0 43.747818 17.951153 61.984735 61.984735 0 0 0 43.747818-17.951153 61.101465 61.101465 0 0 0 18.081045-43.436076v-143.193569h41.201924c22.705221 0 41.227902-18.392788 41.227902-40.942138V347.00764H253.138996v409.10964h-0.103914zM150.030274 347.00764a62.036692 62.036692 0 0 0-43.747818 17.951153 61.101465 61.101465 0 0 0-18.081045 43.436075v286.38714a61.517121 61.517121 0 0 0 61.828863 61.36125 61.491143 61.491143 0 0 0 61.828864-61.36125V408.394868a61.101465 61.101465 0 0 0-18.081046-43.436075 62.036692 62.036692 0 0 0-43.747818-17.951153z m700.510632 0a61.932778 61.932778 0 0 0-43.721839 17.951153 60.997551 60.997551 0 0 0-18.081046 43.436075v286.38714a61.491143 61.491143 0 0 0 61.802885 61.36125 61.491143 61.491143 0 0 0 61.828864-61.36125V408.394868a61.101465 61.101465 0 0 0-18.081046-43.436075 61.984735 61.984735 0 0 0-43.747818-17.951153z m-204.814605-238.924394l53.801503-53.385847a20.315198 20.315198 0 0 0-9.170415-34.26566 20.574983 20.574983 0 0 0-19.899542 5.429509L609.486274 86.209337a247.02969 247.02969 0 0 0-109.187694-25.588837 246.795884 246.795884 0 0 0-109.81118 25.770686L329.282021 25.601463a20.652919 20.652919 0 0 0-29.043978 0.025979 20.263241 20.263241 0 0 0 0.025978 28.83615l53.983352 53.593675C293.067973 152.870204 253.061061 224.856666 253.061061 306.065501h494.501016c-0.025979-81.390685-40.188761-153.377147-101.835776-197.982255z m-227.831568 116.175915h-41.227902V183.368979h41.227902v40.890182z m206.009617 0h-41.201924V183.368979h41.201924v40.890182z" p-id="2910" fill="#1296db"></path></svg>