<?xml version="1.0" standalone="no"?><!DOCTYPE svg PUBLIC "-//W3C//DTD SVG 1.1//EN" "http://www.w3.org/Graphics/SVG/1.1/DTD/svg11.dtd"><svg t="1534857271361" class="icon" style="" viewBox="0 0 1024 1024" version="1.1" xmlns="http://www.w3.org/2000/svg" p-id="806" xmlns:xlink="http://www.w3.org/1999/xlink" width="32" height="32"><defs><style type="text/css"></style></defs><path d="M179.2 0h665.6v1014.4L513.6 769.6 179.2 1014.4V0z" fill="#00AEF7" p-id="807"></path><path d="M531.2 571.2h-48v-22.4c-1.6-43.2 17.6-78.4 59.2-107.2 48-32 68.8-67.2 64-102.4-6.4-44.8-33.6-68.8-83.2-73.6-62.4-3.2-100.8 28.8-112 94.4l-48-16c19.2-84.8 75.2-124.8 164.8-121.6 81.6 4.8 124.8 44.8 131.2 118.4 3.2 48-24 91.2-83.2 131.2-32 20.8-48 48-46.4 80l1.6 19.2z m4.8 113.6v-57.6h-59.2v57.6h59.2z" fill="#FFFFFF" p-id="808"></path></svg>