<?xml version="1.0" standalone="no"?><!DOCTYPE svg PUBLIC "-//W3C//DTD SVG 1.1//EN" "http://www.w3.org/Graphics/SVG/1.1/DTD/svg11.dtd"><svg t="1534778495296" class="icon" style="" viewBox="0 0 1024 1024" version="1.1" xmlns="http://www.w3.org/2000/svg" p-id="4018" xmlns:xlink="http://www.w3.org/1999/xlink" width="32" height="32"><defs><style type="text/css"></style></defs><path d="M340.48 335.36c-17.92 0-35.84 10.24-35.84 28.16 0 15.36 17.92 28.16 35.84 28.16s28.16-12.8 28.16-28.16c0-17.92-10.24-28.16-28.16-28.16zM501.76 389.12c15.36 0 28.16-10.24 28.16-28.16 0-17.92-10.24-28.16-28.16-28.16-15.36 0-33.28 12.8-35.84 28.16 0 17.92 17.92 28.16 35.84 28.16zM583.68 509.44c-12.8 0-23.04 12.8-23.04 23.04 0 12.8 12.8 23.04 23.04 23.04 17.92 0 30.72-12.8 28.16-23.04 0-12.8-10.24-23.04-28.16-23.04zM709.12 509.44c-12.8 0-23.04 12.8-23.04 23.04 0 12.8 12.8 23.04 23.04 23.04 17.92 0 28.16-12.8 28.16-23.04 0-12.8-10.24-23.04-28.16-23.04z" fill="#09BB07" p-id="4019"></path><path d="M512 0C230.4 0 0 230.4 0 512s230.4 512 512 512 512-230.4 512-512S793.6 0 512 0z m-94.72 627.2c-30.72 0-53.76-5.12-81.92-10.24l-81.92 40.96 23.04-69.12c-56.32-40.96-92.16-92.16-92.16-156.16 0-110.08 102.4-197.12 230.4-197.12 115.2 0 215.04 69.12 235.52 161.28h-23.04c-110.08 0-197.12 81.92-197.12 181.76 0 17.92 2.56 33.28 7.68 48.64h-20.48z m340.48 87.04l17.92 56.32-61.44-33.28c-23.04 5.12-46.08 10.24-69.12 10.24-110.08 0-194.56-71.68-194.56-163.84 0-89.6 87.04-163.84 194.56-163.84 102.4 0 194.56 74.24 194.56 163.84 0 51.2-33.28 94.72-81.92 130.56z" fill="#09BB07" p-id="4020"></path></svg>